<?xml version="1.0" encoding="UTF-8"?>
<svg xmlns="http://www.w3.org/2000/svg" xmlns:xlink="http://www.w3.org/1999/xlink" width="32px" height="32px" viewBox="0 0 32 32" version="1.1">
<g id="surface1">
<path style="fill-rule:nonzero;fill:rgb(21.176471%,23.921569%,32.156864%);fill-opacity:1;stroke-width:4;stroke-linecap:butt;stroke-linejoin:miter;stroke:rgb(12.941177%,14.509805%,19.607843%);stroke-opacity:1;stroke-miterlimit:4;" d="M 16 2 L 112 2 C 119.734375 2 126 8.265625 126 16 L 126 112 C 126 119.734375 119.734375 126 112 126 L 16 126 C 8.265625 126 2 119.734375 2 112 L 2 16 C 2 8.265625 8.265625 2 16 2 Z M 16 2 " transform="matrix(0.25,0,0,0.25,0,0)"/>
<path style=" stroke:none;fill-rule:nonzero;fill:rgb(100%,100%,100%);fill-opacity:1;" d="M 5.730469 20.074219 L 5.730469 20.90625 C 12.582031 26.867188 19.433594 26.867188 26.285156 20.90625 L 26.285156 20.074219 Z M 5.730469 20.074219 "/>
<path style=" stroke:none;fill-rule:nonzero;fill:rgb(27.843139%,54.901963%,74.901962%);fill-opacity:1;" d="M 5.730469 20.074219 L 9.570312 20.425781 C 9.773438 20.445312 9.898438 20.5625 9.949219 20.78125 L 10.050781 22.472656 L 13.382812 22.726562 L 13.585938 21.183594 C 13.617188 21 13.746094 20.875 13.964844 20.804688 L 18.054688 20.804688 C 18.273438 20.875 18.398438 21 18.433594 21.183594 L 18.632812 22.726562 L 21.96875 22.472656 L 22.070312 20.78125 C 22.117188 20.5625 22.246094 20.445312 22.445312 20.425781 L 26.285156 20.074219 L 26.285156 13.863281 C 26.789062 13.207031 27.261719 12.523438 27.699219 11.816406 C 27.109375 10.824219 26.410156 9.914062 25.601562 9.089844 C 24.878906 9.425781 24.191406 9.820312 23.53125 10.277344 C 22.859375 9.652344 22.117188 9.117188 21.3125 8.660156 C 21.429688 7.800781 21.496094 6.945312 21.511719 6.085938 C 20.519531 5.613281 19.484375 5.261719 18.40625 5.023438 C 17.96875 5.75 17.582031 6.496094 17.246094 7.273438 C 16.421875 7.152344 15.597656 7.152344 14.769531 7.273438 C 14.433594 6.496094 14.046875 5.75 13.609375 5.023438 C 12.53125 5.261719 11.496094 5.613281 10.503906 6.085938 C 10.519531 6.945312 10.589844 7.800781 10.707031 8.660156 C 9.898438 9.117188 9.15625 9.652344 8.484375 10.277344 C 7.828125 9.820312 7.136719 9.425781 6.414062 9.089844 C 5.605469 9.914062 4.90625 10.824219 4.316406 11.816406 C 4.753906 12.523438 5.226562 13.207031 5.730469 13.863281 Z M 5.730469 20.90625 L 5.730469 21.890625 C 5.730469 28.859375 26.261719 28.859375 26.261719 21.890625 L 26.261719 20.90625 L 22.875 21.210938 L 22.75 22.953125 C 22.714844 23.121094 22.597656 23.230469 22.398438 23.28125 L 18.304688 23.558594 C 18.105469 23.558594 17.96875 23.464844 17.902344 23.28125 L 17.648438 21.640625 L 14.367188 21.640625 L 14.113281 23.28125 C 14.046875 23.464844 13.914062 23.558594 13.710938 23.558594 L 9.621094 23.28125 C 9.417969 23.230469 9.300781 23.121094 9.265625 22.953125 L 9.140625 21.210938 Z M 5.730469 20.90625 "/>
<path style=" stroke:none;fill-rule:nonzero;fill:rgb(100%,100%,100%);fill-opacity:1;" d="M 15.277344 18.230469 C 15.351562 19.089844 16.664062 19.089844 16.742188 18.230469 L 16.742188 16.058594 C 16.664062 15.199219 15.351562 15.199219 15.277344 16.058594 Z M 15.277344 18.230469 "/>
<path style=" stroke:none;fill-rule:nonzero;fill:rgb(100%,100%,100%);fill-opacity:1;" d="M 23.660156 16.363281 C 23.660156 15.105469 22.640625 14.089844 21.386719 14.089844 C 20.132812 14.089844 19.113281 15.105469 19.113281 16.363281 C 19.113281 17.617188 20.132812 18.632812 21.386719 18.632812 C 22.640625 18.632812 23.660156 17.617188 23.660156 16.363281 Z M 23.660156 16.363281 "/>
<path style=" stroke:none;fill-rule:nonzero;fill:rgb(100%,100%,100%);fill-opacity:1;" d="M 12.902344 16.363281 C 12.902344 15.105469 11.886719 14.089844 10.628906 14.089844 C 9.375 14.089844 8.359375 15.105469 8.359375 16.363281 C 8.359375 17.617188 9.375 18.632812 10.628906 18.632812 C 11.886719 18.632812 12.902344 17.617188 12.902344 16.363281 Z M 12.902344 16.363281 "/>
<path style=" stroke:none;fill-rule:nonzero;fill:rgb(25.490198%,25.098041%,25.882354%);fill-opacity:1;" d="M 12.347656 16.511719 C 12.347656 15.675781 11.667969 15 10.832031 15 C 9.996094 15 9.316406 15.675781 9.316406 16.511719 C 9.316406 17.351562 9.996094 18.027344 10.832031 18.027344 C 11.667969 18.027344 12.347656 17.351562 12.347656 16.511719 Z M 12.347656 16.511719 "/>
<path style=" stroke:none;fill-rule:nonzero;fill:rgb(25.490198%,25.098041%,25.882354%);fill-opacity:1;" d="M 22.699219 16.511719 C 22.699219 15.675781 22.019531 15 21.183594 15 C 20.347656 15 19.667969 15.675781 19.667969 16.511719 C 19.667969 17.351562 20.347656 18.027344 21.183594 18.027344 C 22.019531 18.027344 22.699219 17.351562 22.699219 16.511719 Z M 22.699219 16.511719 "/>
</g>
</svg>
